Coordinates
version=1
nRows=43
nColumns=12
inDegrees=yes

Units are S.I. units (second, meters, Newtons, ...)
Angles are in degrees

endheader
time	SC_y	SC_z	SC_x	AC_y	AC_z	AC_x	GH_y	GH_z	GH_yy	EL_x	PS_y
       0.0              -13.93          3.846           47.9          65.35         -17.93         -3.864         -127.5          72.67         -131.2          138.8          147.2
   0.02002              -13.93          3.845           47.9          65.35         -17.93         -3.866         -127.5          72.66         -131.2          138.8          147.2
   0.04005              -13.93          3.845           47.9          65.35         -17.92         -3.867         -127.5          72.65         -131.2          138.8          147.2
   0.06007              -13.94          3.844           47.9          65.35         -17.92         -3.869         -127.4          72.64         -131.2          138.7          147.2
    0.0801              -13.94          3.843          47.91          65.35         -17.92         -3.871         -127.4          72.64         -131.2          138.7          147.2
    0.1001              -13.94          3.842          47.91          65.34         -17.92         -3.872         -127.4          72.63         -131.2          138.7          147.2
    0.1201              -13.95          3.841          47.91          65.34         -17.92         -3.874         -127.3          72.62         -131.2          138.7          147.2
    0.1402              -13.95           3.84          47.92          65.34         -17.91         -3.876         -127.3          72.61         -131.2          138.6          147.2
    0.1602              -13.95          3.839          47.92          65.34         -17.91         -3.879         -127.3          72.59         -131.2          138.6          147.2
    0.1802              -13.96          3.838          47.93          65.33         -17.91         -3.881         -127.2          72.58         -131.3          138.6          147.2
    0.2002              -13.96          3.837          47.93          65.33         -17.91         -3.883         -127.2          72.57         -131.3          138.5          147.2
    0.2203              -13.97          3.835          47.93          65.33          -17.9         -3.886         -127.1          72.55         -131.3          138.5          147.1
    0.2403              -13.97          3.834          47.94          65.32          -17.9         -3.889         -127.0          72.54         -131.3          138.5          147.1
    0.2603              -13.98          3.832          47.94          65.32          -17.9         -3.892         -127.0          72.52         -131.3          138.4          147.1
    0.2803              -13.98          3.831          47.95          65.31         -17.89         -3.896         -126.9          72.51         -131.3          138.4          147.1
    0.3004              -13.99          3.829          47.96          65.31         -17.89         -3.899         -126.8          72.49         -131.3          138.3          147.1
    0.3204               -14.0          3.827          47.96           65.3         -17.88         -3.903         -126.8          72.47         -131.3          138.3          147.0
    0.3404              -14.01          3.825          47.97           65.3         -17.88         -3.908         -126.7          72.44         -131.4          138.2          147.0
    0.3604              -14.02          3.822          47.98          65.29         -17.87         -3.913         -126.6          72.42         -131.4          138.1          147.0
    0.3805              -14.03           3.82          47.99          65.29         -17.87         -3.918         -126.5          72.39         -131.4          138.1          147.0
    0.4005              -14.04          3.817           48.0          65.28         -17.86         -3.924         -126.4          72.36         -131.4          138.0          146.9
    0.4205              -14.05          3.814          48.01          65.27         -17.85          -3.93         -126.2          72.33         -131.5          137.9          146.9
    0.4405              -14.06           3.81          48.02          65.26         -17.84         -3.937         -126.1          72.29         -131.5          137.8          146.9
    0.4606              -14.07          3.807          48.04          65.25         -17.84         -3.945         -125.9          72.25         -131.5          137.7          146.8
    0.4806              -14.09          3.802          48.05          65.24         -17.83         -3.953         -125.8          72.21         -131.6          137.6          146.8
    0.5006              -14.11          3.798          48.07          65.23         -17.81         -3.963         -125.6          72.16         -131.6          137.4          146.7
    0.5206              -14.13          3.792          48.09          65.22          -17.8         -3.974         -125.4           72.1         -131.6          137.3          146.7
    0.5407              -14.15          3.786          48.11           65.2         -17.79         -3.986         -125.1          72.04         -131.7          137.1          146.6
    0.5607              -14.18           3.78          48.13          65.18         -17.77           -4.0         -124.8          71.97         -131.7          136.9          146.6
    0.5807               -14.2          3.772          48.16          65.16         -17.75         -4.015         -124.5          71.89         -131.8          136.7          146.5
    0.6007              -14.24          3.763          48.19          65.14         -17.73         -4.033         -124.2           71.8         -131.9          136.5          146.4
    0.6208              -14.27          3.753          48.23          65.11         -17.71         -4.054         -123.8          71.69         -132.0          136.2          146.3
    0.6408              -14.32          3.742          48.27          65.08         -17.68         -4.077         -123.3          71.57         -132.0          135.9          146.2
    0.6608              -14.37          3.728          48.32          65.05         -17.65         -4.105         -122.8          71.43         -132.2          135.5          146.0
    0.6808              -14.43          3.712          48.37          65.01         -17.62         -4.137         -122.1          71.26         -132.3          135.1          145.8
    0.7008               -14.5          3.694          48.44          64.96         -17.57         -4.174         -121.4          71.07         -132.4          134.5          145.6
    0.7209              -14.58          3.672          48.52           64.9         -17.52         -4.219         -120.5          70.84         -132.6          133.9          145.4
    0.7409              -14.68          3.645          48.61          64.83         -17.46         -4.273         -119.4          70.56         -132.8          133.2          145.1
    0.7609               -14.8          3.613          48.73          64.75         -17.38         -4.338         -118.1          70.22         -133.1          132.3          144.8
    0.7809              -14.94          3.574          48.87          64.65         -17.29         -4.418         -116.5          69.81         -133.4          131.2          144.4
     0.801              -15.12          3.526          49.04          64.53         -17.18         -4.516         -114.6          69.31         -133.8          129.8          143.9
     0.821              -15.35          3.466          49.25          64.37         -17.04         -4.639         -112.1          68.67         -134.3          128.2          143.3
     0.841              -15.63           3.39          49.53          64.17         -16.86         -4.793         -109.1          67.88         -134.9          126.0          142.5
